<svg width="166" height="49" viewBox="0 0 166 49" fill="none" xmlns="http://www.w3.org/2000/svg">
<path fill-rule="evenodd" clip-rule="evenodd" d="M0 14.13V14.253L27.95 27.383L56 14.209V14.176L27.95 1L0 14.13ZM10.077 14.192L27.95 5.795L45.827 14.192L27.95 22.588L10.076 14.192H10.077ZM27.95 32.483L0 19.55V24.334L27.95 37.298L56 24.289V19.505L27.95 32.483ZM27.95 42.186L0 29.25V34.033L27.95 47L56 33.99V29.206L27.95 42.186V42.186Z" fill="white"/>
<mask id="mask0" mask-type="alpha" maskUnits="userSpaceOnUse" x="72" y="0" width="94" height="49">
<path d="M72.0142 0.0302734H165.974V48.3203H72.0152L72.0142 0.0302734Z" fill="white"/>
</mask>
<g mask="url(#mask0)">
<path fill-rule="evenodd" clip-rule="evenodd" d="M159.56 24.1523C159.577 22.0871 158.804 20.0935 157.399 18.5793C156.739 17.8711 155.943 17.3023 155.059 16.9063C154.163 16.5044 153.191 16.2994 152.209 16.3053C151.199 16.3053 150.248 16.5053 149.357 16.9063C148.473 17.3022 147.678 17.8711 147.017 18.5793C145.613 20.094 144.84 22.0879 144.857 24.1533C144.841 26.2184 145.613 28.2118 147.017 29.7263C147.678 30.4342 148.473 31.0027 149.357 31.3983C150.253 31.8007 151.226 32.006 152.208 32.0003C153.218 32.0003 154.168 31.8003 155.06 31.3983C155.943 31.0025 156.739 30.434 157.399 29.7263C158.803 28.2117 159.576 26.2177 159.559 24.1523H159.56ZM165.975 24.1523C165.975 26.0843 165.618 27.8753 164.905 29.5253C164.221 31.1339 163.221 32.5891 161.965 33.8053C160.718 35.0103 159.255 35.9613 157.577 36.6593C155.899 37.3583 154.109 37.7073 152.208 37.7073C150.308 37.7073 148.525 37.3583 146.862 36.6593C145.238 35.9862 143.756 35.0102 142.496 33.7833C141.243 32.5563 140.244 31.0945 139.556 29.4813C138.843 27.8313 138.486 26.0553 138.486 24.1523C138.486 22.2793 138.85 20.5183 139.578 18.8683C140.283 17.2521 141.288 15.7844 142.54 14.5433C143.795 13.3047 145.278 12.3206 146.907 11.6453C148.586 10.9437 150.389 10.5872 152.208 10.5973C154.109 10.5973 155.898 10.9473 157.577 11.6453C159.255 12.3433 160.717 13.2953 161.965 14.4993C163.213 15.7033 164.193 17.1373 164.905 18.8013C165.618 20.4663 165.975 22.2503 165.975 24.1523V24.1523ZM136.258 36.9053C135.708 37.1584 135.134 37.3528 134.543 37.4853C133.905 37.6333 133.243 37.7073 132.561 37.7073C131.635 37.7106 130.712 37.583 129.821 37.3283C128.976 37.0923 128.192 36.6738 127.526 36.1023C126.873 35.5373 126.353 34.8023 125.966 33.8953C125.581 32.9883 125.388 31.8953 125.388 30.6183V0.0292969H131.937V29.5033C131.937 30.5733 132.152 31.3093 132.583 31.7103C133.013 32.1113 133.526 32.3123 134.12 32.3123C134.862 32.3123 135.575 32.0893 136.258 31.6433V36.9053V36.9053ZM122.492 11.2203L110.908 41.8543C110.047 44.1433 108.918 45.7933 107.522 46.8043C106.126 47.8143 104.462 48.3193 102.532 48.3193C102.235 48.3193 101.909 48.2973 101.552 48.2533C101.206 48.2107 100.864 48.1435 100.527 48.0523L98.3891 42.0773C98.8897 42.3134 99.4122 42.4999 99.9491 42.6343C100.483 42.7683 100.988 42.8353 101.463 42.8353C102.473 42.8353 103.393 42.6053 104.225 42.1443C105.057 41.6843 105.695 40.8293 106.141 39.5803L107.032 36.9943L97.0971 11.2213H104.092L110.017 27.8093L115.587 11.2213H122.492V11.2203ZM95.5381 7.3423H78.7861V15.6363H95.3151V21.2543H78.7851V37.0383H72.0151V1.4123H95.5391V7.3423H95.5381Z" fill="white"/>
</g>
</svg>
