<svg width="126" height="33" viewBox="0 0 126 33" fill="none" xmlns="http://www.w3.org/2000/svg">
<path d="M16.035 0C7.194 0 0 7.192 0 16.034C0 24.876 7.194 32.068 16.035 32.068C24.876 32.068 32.07 24.876 32.07 16.034C32.07 7.192 24.876 0 16.035 0ZM16.035 31C7.783 31 1.07 24.286 1.07 16.034C1.07 7.782 7.783 1.068 16.035 1.068C24.287 1.068 31 7.782 31 16.034C31 24.286 24.287 31 16.035 31Z" fill="white"/>
<path d="M19.5351 7.03422H16.8671C13.4691 7.00022 13.0351 9.10321 13.0351 11.3792V13.0342H11.5351C11.4673 13.0252 11.3983 13.0318 11.3336 13.0538C11.2688 13.0757 11.2099 13.1123 11.1615 13.1606C11.1132 13.209 11.0766 13.2679 11.0547 13.3326C11.0327 13.3974 11.0261 13.4664 11.0351 13.5342V16.5342C11.0261 16.602 11.0327 16.671 11.0547 16.7358C11.0766 16.8006 11.1132 16.8594 11.1615 16.9078C11.2099 16.9562 11.2688 16.9927 11.3336 17.0146C11.3983 17.0366 11.4673 17.0433 11.5351 17.0342H13.0351V24.5342C13.0268 24.6021 13.0341 24.6711 13.0565 24.7357C13.0788 24.8004 13.1157 24.8591 13.1642 24.9073C13.2128 24.9556 13.2717 24.9921 13.3365 25.0141C13.4013 25.0361 13.4702 25.0429 13.5381 25.0342H16.5931C16.8881 25.0682 17.1271 24.8292 17.0331 24.5342L17.0351 17.0342H19.5351C19.6029 17.0433 19.6719 17.0366 19.7367 17.0146C19.8015 16.9927 19.8603 16.9562 19.9087 16.9078C19.9571 16.8594 19.9936 16.8006 20.0155 16.7358C20.0375 16.671 20.0442 16.602 20.0351 16.5342V13.5342C20.0442 13.4664 20.0375 13.3974 20.0155 13.3326C19.9936 13.2679 19.9571 13.209 19.9087 13.1606C19.8603 13.1123 19.8015 13.0757 19.7367 13.0538C19.6719 13.0318 19.6029 13.0252 19.5351 13.0342H17.0321L17.0351 11.5342C17.1321 10.8952 17.1321 10.9992 17.7251 11.0342H19.5141C19.6531 11.0032 19.8011 11.0202 19.9051 10.9192C20.0091 10.8182 20.0691 10.6802 20.0341 10.5342V7.53422C20.0433 7.46648 20.0368 7.39752 20.015 7.33272C19.9932 7.26792 19.9567 7.20902 19.9084 7.16063C19.8602 7.11224 19.8013 7.07565 19.7366 7.05373C19.6718 7.0318 19.6029 7.02512 19.5351 7.03422ZM19.0001 9.97821L17.7461 9.93021C16.1931 9.93021 16.0631 10.7732 16.0631 11.6362L16.0591 13.5322C16.059 13.6024 16.0727 13.672 16.0995 13.7369C16.1263 13.8018 16.1656 13.8608 16.2152 13.9105C16.2648 13.9601 16.3237 13.9996 16.3885 14.0265C16.4534 14.0534 16.5229 14.0672 16.5931 14.0672H19.0351V15.9992H16.5951C16.4534 15.9992 16.3175 16.0554 16.2172 16.1556C16.1169 16.2557 16.0604 16.3915 16.0601 16.5332L16.0591 24.0342H14.0351V16.5342C14.0351 16.2392 13.8341 16.0002 13.5381 16.0002H12.0351V14.0682H13.5381C13.6083 14.0683 13.6778 14.0546 13.7426 14.0278C13.8075 14.0011 13.8664 13.9618 13.9161 13.9122C14.0161 13.8112 14.0341 13.6752 14.0341 13.5332V11.3782C14.0341 9.13621 14.4871 8.06821 16.8661 8.06821H18.9991V9.97821H19.0001Z" fill="white"/>
<path d="M63.035 0C54.194 0 47 7.192 47 16.034C47 24.876 54.194 32.068 63.035 32.068C71.876 32.068 79.07 24.876 79.07 16.034C79.07 7.192 71.876 0 63.035 0ZM63.035 31C54.783 31 48.07 24.286 48.07 16.034C48.07 7.782 54.783 1.068 63.035 1.068C71.287 1.068 78 7.782 78 16.034C78 24.286 71.287 31 63.035 31Z" fill="white"/>
<path d="M71.8288 11.08C71.9397 10.8747 72.0312 10.6594 72.1019 10.437C72.1346 10.3338 72.1353 10.2232 72.1038 10.1196C72.0723 10.0161 72.0102 9.9245 71.9256 9.857C71.841 9.7895 71.7379 9.7493 71.6299 9.7416C71.522 9.7339 71.4142 9.7592 71.3209 9.814C70.8085 10.1184 70.2537 10.3452 69.6748 10.487C68.9721 9.8528 68.0595 9.5012 67.1129 9.5C66.5986 9.5004 66.0897 9.6046 65.6167 9.8065C65.1437 10.0083 64.7163 10.3036 64.3601 10.6746C64.004 11.0456 63.7264 11.4847 63.544 11.9655C63.3617 12.4464 63.2782 12.9591 63.2988 13.473C61.0498 13.1899 58.9961 12.0519 57.5638 10.295C57.5089 10.2284 57.4388 10.1761 57.3594 10.1425C57.2799 10.1088 57.1936 10.0948 57.1076 10.1017C57.0216 10.1086 56.9385 10.1361 56.8654 10.1819C56.7924 10.2278 56.7314 10.2906 56.6878 10.365C56.3598 10.9279 56.1816 11.5655 56.17 12.2169C56.1585 12.8683 56.3141 13.5118 56.6219 14.086C56.5464 14.0987 56.4738 14.1252 56.4078 14.164C56.327 14.2156 56.2604 14.2867 56.2142 14.3707C56.1681 14.4548 56.1439 14.5491 56.1438 14.645C56.1438 15.78 56.6488 16.822 57.4628 17.53L57.4278 17.565C57.3664 17.6345 57.3242 17.7189 57.3052 17.8097C57.2863 17.9005 57.2913 17.9947 57.3198 18.083C57.4895 18.6125 57.773 19.0986 58.1502 19.5071C58.5275 19.9156 58.9894 20.2367 59.5038 20.448C58.4475 20.9633 57.2652 21.1643 56.0978 21.027C55.9778 21.0148 55.8571 21.0427 55.7547 21.1064C55.6523 21.1701 55.5739 21.266 55.5318 21.379C55.4914 21.4929 55.4906 21.6171 55.5297 21.7314C55.5687 21.8458 55.6453 21.9436 55.7469 22.009C57.3339 23.0276 59.1801 23.5687 61.0658 23.568C67.2458 23.568 70.9398 18.548 70.9398 13.695L70.9388 13.531C71.5377 13.0634 72.058 12.503 72.4798 11.871C72.5437 11.7755 72.5751 11.6619 72.5694 11.5471C72.5637 11.4323 72.5212 11.3224 72.4481 11.2337C72.3751 11.1449 72.2754 11.0821 72.1639 11.0544C72.0523 11.0267 71.9349 11.0357 71.8288 11.08ZM70.0839 12.835C70.0113 12.8872 69.953 12.9567 69.9142 13.0372C69.8754 13.1178 69.8575 13.2067 69.8619 13.296C69.8679 13.428 69.8708 13.562 69.8708 13.694C69.8708 18.022 66.5778 22.499 61.0668 22.499C60.0839 22.4995 59.1079 22.3345 58.1798 22.011C59.2914 21.798 60.3356 21.3213 61.2248 20.621C61.3114 20.5528 61.3747 20.4594 61.4062 20.3538C61.4377 20.2482 61.4359 20.1354 61.4008 20.0309C61.3658 19.9264 61.2994 19.8353 61.2106 19.7699C61.1218 19.7046 61.015 19.6683 60.9048 19.666C60.4736 19.6578 60.0504 19.5483 59.6693 19.3465C59.2882 19.1446 58.9599 18.8561 58.7108 18.504C58.9638 18.487 59.2118 18.445 59.4528 18.38C59.5694 18.3488 59.6721 18.279 59.7439 18.1819C59.8158 18.0849 59.8526 17.9664 59.8484 17.8457C59.8442 17.725 59.7993 17.6093 59.7209 17.5175C59.6425 17.4256 59.5353 17.3631 59.4168 17.34C58.9298 17.2409 58.4789 17.0114 58.1124 16.6758C57.7458 16.3402 57.4774 15.9114 57.3358 15.435C57.6018 15.502 57.8748 15.541 58.1478 15.55C58.3828 15.549 58.6008 15.405 58.6738 15.179C58.7468 14.953 58.6608 14.704 58.4618 14.572C57.9913 14.2585 57.629 13.8074 57.4244 13.2803C57.2198 12.7532 57.183 12.1758 57.3188 11.627C59.0558 13.4093 61.4014 14.4707 63.8868 14.599C64.0628 14.6 64.2168 14.537 64.3238 14.408C64.4308 14.279 64.4719 14.108 64.4339 13.944C64.2971 13.355 64.3582 12.7373 64.6079 12.1866C64.8575 11.6359 65.2817 11.1828 65.8148 10.8974C66.3479 10.6121 66.9603 10.5104 67.557 10.6081C68.1538 10.7059 68.7016 10.9975 69.1158 11.438C69.1779 11.5042 69.2559 11.5536 69.3423 11.5814C69.4288 11.6092 69.5207 11.6146 69.6098 11.597C69.7748 11.564 69.9379 11.526 70.0989 11.482C70.0263 11.5363 69.9508 11.5867 69.8728 11.633C69.7691 11.6965 69.6901 11.7935 69.6489 11.9079C69.6077 12.0223 69.6067 12.1473 69.6461 12.2624C69.6854 12.3774 69.7629 12.4757 69.8656 12.5409C69.9682 12.606 70.09 12.6343 70.2109 12.621L70.3928 12.598C70.2926 12.6806 70.1896 12.7596 70.0839 12.835Z" fill="white"/>
<path d="M109.035 9.42282C104.38 9.42282 100.623 12.822 100.623 17.0339C100.623 21.2458 104.38 24.645 109.035 24.645C113.69 24.645 117.447 21.2458 117.447 17.0339C117.447 12.822 113.69 9.42282 109.035 9.42282ZM109.035 21.9806C106.024 21.9806 103.568 19.7577 103.568 17.0339C103.568 14.3101 106.024 12.0872 109.035 12.0872C112.046 12.0872 114.502 14.3101 114.502 17.0339C114.502 19.7577 112.046 21.9806 109.035 21.9806ZM117.792 7.33724C116.705 7.33724 115.827 8.13142 115.827 9.11482C115.827 10.0982 116.705 10.8923 117.792 10.8923C118.879 10.8923 119.756 10.1019 119.756 9.11482C119.757 8.88122 119.706 8.65002 119.608 8.43422C119.509 8.21842 119.364 8.02233 119.182 7.85721C118.999 7.69209 118.783 7.56117 118.544 7.47195C118.306 7.38272 118.05 7.33694 117.792 7.33724ZM125.433 17.0339C125.433 14.9855 125.454 12.9556 125.326 10.9109C125.199 8.53592 124.6 6.42806 122.681 4.69134C120.757 2.95091 118.432 2.41282 115.807 2.29778C113.543 2.18274 111.299 2.2013 109.039 2.2013C106.775 2.2013 104.531 2.18274 102.272 2.29778C99.6466 2.41282 97.3169 2.95462 95.3974 4.69134C93.4738 6.43177 92.8791 8.53592 92.7519 10.9109C92.6248 12.9593 92.6453 14.9892 92.6453 17.0339C92.6453 19.0786 92.6248 21.1122 92.7519 23.1569C92.8791 25.5319 93.4779 27.6398 95.3974 29.3765C97.321 31.1169 99.6466 31.655 102.272 31.77C104.536 31.8851 106.779 31.8665 109.039 31.8665C111.303 31.8665 113.547 31.8851 115.807 31.77C118.432 31.655 120.761 31.1132 122.681 29.3765C124.605 27.636 125.199 25.5319 125.326 23.1569C125.458 21.1122 125.433 19.0823 125.433 17.0339ZM121.824 25.7843C121.524 26.4597 121.163 26.9644 120.585 27.4839C120.007 28.0071 119.453 28.3337 118.706 28.6046C116.549 29.3802 111.426 29.2058 109.035 29.2058C106.644 29.2058 101.517 29.3802 99.3595 28.6083C98.613 28.3374 98.0552 28.0109 97.481 27.4876C96.9027 26.9644 96.5418 26.4634 96.2423 25.788C95.3892 23.8323 95.582 19.1974 95.582 17.0339C95.582 14.8704 95.3892 10.2317 96.2423 8.27982C96.5418 7.60442 96.9027 7.09974 97.481 6.58021C98.0593 6.06067 98.613 5.7304 99.3595 5.4595C101.517 4.68763 106.644 4.86204 109.035 4.86204C111.426 4.86204 116.553 4.68763 118.711 5.4595C119.457 5.7304 120.015 6.05696 120.589 6.58021C121.167 7.10345 121.528 7.60442 121.828 8.27982C122.681 10.2317 122.488 14.8704 122.488 17.0339C122.488 19.1974 122.681 23.8323 121.824 25.7843Z" fill="white"/>
</svg>
