<svg width="130" height="38" viewBox="0 0 130 38" fill="none" xmlns="http://www.w3.org/2000/svg">
<g clip-path="url(#clip0)">
<path d="M16 1.966C7.15903 1.966 -0.0349731 9.158 -0.0349731 18C-0.0349731 26.842 7.15903 34.034 16 34.034C24.841 34.034 32.035 26.842 32.035 18C32.035 9.158 24.841 1.966 16 1.966ZM16 32.966C7.74803 32.966 1.03503 26.252 1.03503 18C1.03503 9.748 7.74803 3.034 16 3.034C24.252 3.034 30.965 9.748 30.965 18C30.965 26.252 24.252 32.966 16 32.966Z" fill="black"/>
<path d="M19.5 9.00001H16.832C13.434 8.96601 13 11.069 13 13.345V15H11.5C11.4322 14.991 11.3632 14.9976 11.2985 15.0196C11.2337 15.0415 11.1748 15.0781 11.1264 15.1264C11.0781 15.1748 11.0415 15.2337 11.0196 15.2984C10.9976 15.3632 10.991 15.4322 11 15.5V18.5C10.991 18.5678 10.9976 18.6368 11.0196 18.7016C11.0415 18.7664 11.0781 18.8252 11.1264 18.8736C11.1748 18.922 11.2337 18.9585 11.2985 18.9804C11.3632 19.0024 11.4322 19.0091 11.5 19H13V26.5C12.9917 26.5679 12.999 26.6369 13.0214 26.7015C13.0437 26.7662 13.0806 26.8249 13.1291 26.8731C13.1777 26.9214 13.2366 26.9579 13.3014 26.9799C13.3662 27.0019 13.4351 27.0087 13.503 27H16.558C16.853 27.034 17.092 26.795 16.998 26.5L17 19H19.5C19.5678 19.0091 19.6368 19.0024 19.7016 18.9804C19.7664 18.9585 19.8252 18.922 19.8736 18.8736C19.922 18.8252 19.9585 18.7664 19.9804 18.7016C20.0024 18.6368 20.0091 18.5678 20 18.5V15.5C20.0091 15.4322 20.0024 15.3632 19.9804 15.2984C19.9585 15.2337 19.922 15.1748 19.8736 15.1264C19.8252 15.0781 19.7664 15.0415 19.7016 15.0196C19.6368 14.9976 19.5678 14.991 19.5 15H16.997L17 13.5C17.097 12.861 17.097 12.965 17.69 13H19.479C19.618 12.969 19.766 12.986 19.87 12.885C19.974 12.784 20.034 12.646 19.999 12.5V9.50001C20.0082 9.43227 20.0017 9.36331 19.9799 9.29851C19.9581 9.23371 19.9216 9.17481 19.8733 9.12642C19.8251 9.07803 19.7662 9.04144 19.7015 9.01952C19.6367 8.99759 19.5678 8.99091 19.5 9.00001V9.00001ZM18.965 11.944L17.711 11.896C16.158 11.896 16.028 12.739 16.028 13.602L16.024 15.498C16.0239 15.5682 16.0376 15.6378 16.0644 15.7027C16.0912 15.7676 16.1305 15.8266 16.1801 15.8763C16.2297 15.9259 16.2886 15.9654 16.3534 15.9923C16.4183 16.0192 16.4878 16.033 16.558 16.033H19V17.965H16.56C16.4183 17.965 16.2824 18.0212 16.1821 18.1214C16.0818 18.2215 16.0253 18.3573 16.025 18.499L16.024 26H14V18.5C14 18.205 13.799 17.966 13.503 17.966H12V16.034H13.503C13.5732 16.0341 13.6427 16.0204 13.7075 15.9936C13.7724 15.9669 13.8313 15.9276 13.881 15.878C13.981 15.777 13.999 15.641 13.999 15.499V13.344C13.999 11.102 14.452 10.034 16.831 10.034H18.964V11.944H18.965Z" fill="black"/>
</g>
<g clip-path="url(#clip1)">
<path d="M63 1.966C54.159 1.966 46.965 9.158 46.965 18C46.965 26.842 54.159 34.034 63 34.034C71.841 34.034 79.035 26.842 79.035 18C79.035 9.158 71.841 1.966 63 1.966ZM63 32.966C54.748 32.966 48.035 26.252 48.035 18C48.035 9.748 54.748 3.034 63 3.034C71.252 3.034 77.965 9.748 77.965 18C77.965 26.252 71.252 32.966 63 32.966Z" fill="black"/>
<path d="M71.794 13.046C71.9049 12.8407 71.9963 12.6254 72.067 12.403C72.0997 12.2998 72.1004 12.1892 72.0689 12.0856C72.0374 11.9821 71.9753 11.8905 71.8907 11.823C71.8061 11.7555 71.703 11.7153 71.595 11.7076C71.4871 11.6999 71.3793 11.7252 71.286 11.78C70.7736 12.0844 70.2189 12.3112 69.64 12.453C68.9373 11.8188 68.0246 11.4672 67.078 11.466C66.5637 11.4664 66.0548 11.5706 65.5818 11.7725C65.1088 11.9743 64.6814 12.2696 64.3252 12.6406C63.9691 13.0116 63.6915 13.4507 63.5091 13.9315C63.3268 14.4124 63.2434 14.9251 63.264 15.439C61.015 15.1559 58.9613 14.0179 57.529 12.261C57.4741 12.1944 57.404 12.1421 57.3246 12.1085C57.2451 12.0748 57.1588 12.0608 57.0728 12.0677C56.9868 12.0746 56.9037 12.1021 56.8306 12.1479C56.7576 12.1938 56.6966 12.2566 56.653 12.331C56.325 12.8939 56.1468 13.5315 56.1352 14.1829C56.1237 14.8343 56.2792 15.4778 56.587 16.052C56.5115 16.0647 56.439 16.0912 56.373 16.13C56.2922 16.1816 56.2256 16.2527 56.1794 16.3367C56.1333 16.4208 56.1091 16.5151 56.109 16.611C56.109 17.746 56.614 18.788 57.428 19.496L57.393 19.531C57.3316 19.6005 57.2893 19.6849 57.2703 19.7757C57.2514 19.8665 57.2565 19.9607 57.285 20.049C57.4547 20.5785 57.7382 21.0646 58.1154 21.4731C58.4927 21.8816 58.9546 22.2027 59.469 22.414C58.4126 22.9293 57.2304 23.1303 56.063 22.993C55.943 22.9808 55.8223 23.0087 55.7199 23.0724C55.6175 23.1361 55.5391 23.232 55.497 23.345C55.4566 23.4589 55.4558 23.5831 55.4949 23.6974C55.5339 23.8118 55.6104 23.9096 55.712 23.975C57.299 24.9936 59.1453 25.5347 61.031 25.534C67.211 25.534 70.905 20.514 70.905 15.661L70.904 15.497C71.5029 15.0294 72.0232 14.469 72.445 13.837C72.5089 13.7415 72.5403 13.6279 72.5346 13.5131C72.5289 13.3983 72.4864 13.2884 72.4133 13.1997C72.3403 13.1109 72.2406 13.0481 72.1291 13.0204C72.0175 12.9927 71.9001 13.0017 71.794 13.046V13.046ZM70.049 14.801C69.9764 14.8532 69.9181 14.9227 69.8793 15.0032C69.8405 15.0838 69.8226 15.1727 69.827 15.262C69.833 15.394 69.836 15.528 69.836 15.66C69.836 19.988 66.543 24.465 61.032 24.465C60.0491 24.4655 59.0731 24.3005 58.145 23.977C59.2566 23.764 60.3008 23.2873 61.19 22.587C61.2766 22.5188 61.3399 22.4254 61.3714 22.3198C61.4029 22.2142 61.4011 22.1014 61.366 21.9969C61.331 21.8924 61.2646 21.8013 61.1758 21.7359C61.087 21.6706 60.9802 21.6343 60.87 21.632C60.4388 21.6238 60.0156 21.5143 59.6345 21.3125C59.2534 21.1106 58.9251 20.8221 58.676 20.47C58.929 20.453 59.177 20.411 59.418 20.346C59.5346 20.3148 59.6373 20.245 59.7091 20.1479C59.781 20.0509 59.8178 19.9324 59.8136 19.8117C59.8094 19.691 59.7645 19.5753 59.6861 19.4835C59.6077 19.3916 59.5005 19.3291 59.382 19.306C58.895 19.2069 58.4441 18.9774 58.0776 18.6418C57.711 18.3062 57.4426 17.8774 57.301 17.401C57.567 17.468 57.84 17.507 58.113 17.516C58.348 17.515 58.566 17.371 58.639 17.145C58.712 16.919 58.626 16.67 58.427 16.538C57.9565 16.2245 57.5942 15.7734 57.3896 15.2463C57.185 14.7192 57.1482 14.1418 57.284 13.593C59.021 15.3753 61.3666 16.4367 63.852 16.565C64.028 16.566 64.182 16.503 64.289 16.374C64.396 16.245 64.437 16.074 64.399 15.91C64.2622 15.321 64.3234 14.7033 64.5731 14.1526C64.8227 13.6019 65.2469 13.1488 65.78 12.8634C66.3131 12.5781 66.9254 12.4764 67.5221 12.5741C68.1189 12.6719 68.6668 12.9635 69.081 13.404C69.1431 13.4702 69.221 13.5196 69.3074 13.5474C69.3939 13.5752 69.4859 13.5806 69.575 13.563C69.74 13.53 69.903 13.492 70.064 13.448C69.9914 13.5023 69.916 13.5527 69.838 13.599C69.7343 13.6625 69.6553 13.7595 69.6141 13.8739C69.5729 13.9883 69.5719 14.1133 69.6113 14.2284C69.6506 14.3434 69.728 14.4417 69.8307 14.5069C69.9333 14.572 70.0551 14.6003 70.176 14.587L70.358 14.564C70.2578 14.6466 70.1547 14.7256 70.049 14.801V14.801Z" fill="black"/>
</g>
<path d="M109 11.3889C104.345 11.3889 100.588 14.7881 100.588 19C100.588 23.2119 104.345 26.6111 109 26.6111C113.655 26.6111 117.412 23.2119 117.412 19C117.412 14.7881 113.655 11.3889 109 11.3889ZM109 23.9467C105.989 23.9467 103.533 21.7238 103.533 19C103.533 16.2762 105.989 14.0533 109 14.0533C112.011 14.0533 114.467 16.2762 114.467 19C114.467 21.7238 112.011 23.9467 109 23.9467ZM117.757 9.30332C116.67 9.30332 115.792 10.0975 115.792 11.0809C115.792 12.0643 116.67 12.8584 117.757 12.8584C118.844 12.8584 119.721 12.068 119.721 11.0809C119.722 10.8473 119.671 10.6161 119.573 10.4003C119.474 10.1845 119.329 9.98841 119.147 9.82329C118.964 9.65817 118.748 9.52725 118.509 9.43803C118.271 9.3488 118.015 9.30302 117.757 9.30332V9.30332ZM125.398 19C125.398 16.9516 125.419 14.9217 125.291 12.877C125.164 10.502 124.565 8.39414 122.646 6.65742C120.722 4.91699 118.397 4.3789 115.772 4.26386C113.508 4.14882 111.264 4.16738 109.004 4.16738C106.74 4.16738 104.496 4.14882 102.237 4.26386C99.6115 4.3789 97.2818 4.9207 95.3623 6.65742C93.4387 8.39785 92.844 10.502 92.7168 12.877C92.5897 14.9254 92.6102 16.9553 92.6102 19C92.6102 21.0447 92.5897 23.0783 92.7168 25.123C92.844 27.498 93.4428 29.6059 95.3623 31.3426C97.2859 33.083 99.6115 33.6211 102.237 33.7361C104.501 33.8512 106.744 33.8326 109.004 33.8326C111.268 33.8326 113.512 33.8512 115.772 33.7361C118.397 33.6211 120.726 33.0793 122.646 31.3426C124.57 29.6021 125.164 27.498 125.291 25.123C125.423 23.0783 125.398 21.0484 125.398 19V19ZM121.789 27.7504C121.489 28.4258 121.128 28.9305 120.55 29.45C119.972 29.9732 119.418 30.2998 118.671 30.5707C116.514 31.3463 111.391 31.1719 109 31.1719C106.609 31.1719 101.482 31.3463 99.3244 30.5744C98.5779 30.3035 98.0201 29.977 97.4459 29.4537C96.8676 28.9305 96.5067 28.4295 96.2072 27.7541C95.3541 25.7984 95.5469 21.1635 95.5469 19C95.5469 16.8365 95.3541 12.1978 96.2072 10.2459C96.5067 9.5705 96.8676 9.06582 97.4459 8.54629C98.0242 8.02675 98.5779 7.69648 99.3244 7.42558C101.482 6.65371 106.609 6.82812 109 6.82812C111.391 6.82812 116.518 6.65371 118.676 7.42558C119.422 7.69648 119.98 8.02304 120.554 8.54629C121.132 9.06953 121.493 9.5705 121.793 10.2459C122.646 12.1978 122.453 16.8365 122.453 19C122.453 21.1635 122.646 25.7984 121.789 27.7504Z" fill="black"/>
<defs>
<clipPath id="clip0">
<rect width="32" height="32" fill="white" transform="translate(0 2)"/>
</clipPath>
<clipPath id="clip1">
<rect width="32" height="32" fill="white" transform="translate(47 2)"/>
</clipPath>
</defs>
</svg>
