<svg width="125" height="33" viewBox="0 0 125 33" fill="none" xmlns="http://www.w3.org/2000/svg">
<path d="M16.035 0C7.194 0 0 7.192 0 16.034C0 24.876 7.194 32.068 16.035 32.068C24.876 32.068 32.07 24.876 32.07 16.034C32.07 7.192 24.876 0 16.035 0ZM16.035 31C7.783 31 1.07 24.286 1.07 16.034C1.07 7.782 7.783 1.068 16.035 1.068C24.287 1.068 31 7.782 31 16.034C31 24.286 24.287 31 16.035 31Z" fill="white"/>
<path d="M19.5351 7.03401H16.8671C13.4691 7.00001 13.0351 9.103 13.0351 11.379V13.034H11.5351C11.4673 13.025 11.3983 13.0316 11.3336 13.0536C11.2688 13.0755 11.2099 13.1121 11.1615 13.1604C11.1132 13.2088 11.0766 13.2677 11.0547 13.3324C11.0327 13.3972 11.0261 13.4662 11.0351 13.534V16.534C11.0261 16.6018 11.0327 16.6708 11.0547 16.7356C11.0766 16.8004 11.1132 16.8592 11.1615 16.9076C11.2099 16.956 11.2688 16.9925 11.3336 17.0144C11.3983 17.0364 11.4673 17.0431 11.5351 17.034H13.0351V24.534C13.0268 24.6019 13.0341 24.6709 13.0565 24.7355C13.0788 24.8002 13.1157 24.8589 13.1642 24.9071C13.2128 24.9554 13.2717 24.9919 13.3365 25.0139C13.4013 25.0359 13.4702 25.0427 13.5381 25.034H16.5931C16.8881 25.068 17.1271 24.829 17.0331 24.534L17.0351 17.034H19.5351C19.6029 17.0431 19.6719 17.0364 19.7367 17.0144C19.8015 16.9925 19.8603 16.956 19.9087 16.9076C19.9571 16.8592 19.9936 16.8004 20.0155 16.7356C20.0375 16.6708 20.0442 16.6018 20.0351 16.534V13.534C20.0442 13.4662 20.0375 13.3972 20.0155 13.3324C19.9936 13.2677 19.9571 13.2088 19.9087 13.1604C19.8603 13.1121 19.8015 13.0755 19.7367 13.0536C19.6719 13.0316 19.6029 13.025 19.5351 13.034H17.0321L17.0351 11.534C17.1321 10.895 17.1321 10.999 17.7251 11.034H19.5141C19.6531 11.003 19.8011 11.02 19.9051 10.919C20.0091 10.818 20.0691 10.68 20.0341 10.534V7.53401C20.0433 7.46627 20.0368 7.39731 20.015 7.33251C19.9932 7.26771 19.9567 7.20881 19.9084 7.16042C19.8602 7.11203 19.8013 7.07544 19.7366 7.05352C19.6718 7.03159 19.6029 7.02491 19.5351 7.03401ZM19.0001 9.978L17.7461 9.93C16.1931 9.93 16.0631 10.773 16.0631 11.636L16.0591 13.532C16.059 13.6022 16.0727 13.6718 16.0995 13.7367C16.1263 13.8016 16.1656 13.8606 16.2152 13.9103C16.2648 13.9599 16.3237 13.9994 16.3885 14.0263C16.4534 14.0532 16.5229 14.067 16.5931 14.067H19.0351V15.999H16.5951C16.4534 15.999 16.3175 16.0552 16.2172 16.1554C16.1169 16.2555 16.0604 16.3913 16.0601 16.533L16.0591 24.034H14.0351V16.534C14.0351 16.239 13.8341 16 13.5381 16H12.0351V14.068H13.5381C13.6083 14.0681 13.6778 14.0544 13.7426 14.0276C13.8075 14.0009 13.8664 13.9616 13.9161 13.912C14.0161 13.811 14.0341 13.675 14.0341 13.533V11.378C14.0341 9.136 14.4871 8.068 16.8661 8.068H18.9991V9.978H19.0001Z" fill="white"/>
<path d="M63.035 0C54.194 0 47 7.192 47 16.034C47 24.876 54.194 32.068 63.035 32.068C71.876 32.068 79.07 24.876 79.07 16.034C79.07 7.192 71.876 0 63.035 0ZM63.035 31C54.783 31 48.07 24.286 48.07 16.034C48.07 7.782 54.783 1.068 63.035 1.068C71.287 1.068 78 7.782 78 16.034C78 24.286 71.287 31 63.035 31Z" fill="white"/>
<path d="M71.8288 11.08C71.9397 10.8747 72.0312 10.6594 72.1019 10.437C72.1346 10.3338 72.1353 10.2232 72.1038 10.1196C72.0723 10.0161 72.0102 9.9245 71.9256 9.857C71.841 9.7895 71.7379 9.7493 71.6299 9.7416C71.522 9.7339 71.4142 9.7592 71.3209 9.814C70.8085 10.1184 70.2537 10.3452 69.6748 10.487C68.9721 9.8528 68.0595 9.5012 67.1129 9.5C66.5986 9.5004 66.0897 9.6046 65.6167 9.8065C65.1437 10.0083 64.7163 10.3036 64.3601 10.6746C64.004 11.0456 63.7264 11.4847 63.544 11.9655C63.3617 12.4464 63.2782 12.9591 63.2988 13.473C61.0498 13.1899 58.9961 12.0519 57.5638 10.295C57.5089 10.2284 57.4388 10.1761 57.3594 10.1425C57.2799 10.1088 57.1936 10.0948 57.1076 10.1017C57.0216 10.1086 56.9385 10.1361 56.8654 10.1819C56.7924 10.2278 56.7314 10.2906 56.6878 10.365C56.3598 10.9279 56.1816 11.5655 56.17 12.2169C56.1585 12.8683 56.3141 13.5118 56.6219 14.086C56.5464 14.0987 56.4738 14.1252 56.4078 14.164C56.327 14.2156 56.2604 14.2867 56.2142 14.3707C56.1681 14.4548 56.1439 14.5491 56.1438 14.645C56.1438 15.78 56.6488 16.822 57.4628 17.53L57.4278 17.565C57.3664 17.6345 57.3242 17.7189 57.3052 17.8097C57.2863 17.9005 57.2913 17.9947 57.3198 18.083C57.4895 18.6125 57.773 19.0986 58.1502 19.5071C58.5275 19.9156 58.9894 20.2367 59.5038 20.448C58.4475 20.9633 57.2652 21.1643 56.0978 21.027C55.9778 21.0148 55.8571 21.0427 55.7547 21.1064C55.6523 21.1701 55.5739 21.266 55.5318 21.379C55.4914 21.4929 55.4906 21.6171 55.5297 21.7314C55.5687 21.8458 55.6453 21.9436 55.7469 22.009C57.3339 23.0276 59.1801 23.5687 61.0658 23.568C67.2458 23.568 70.9398 18.548 70.9398 13.695L70.9388 13.531C71.5377 13.0634 72.058 12.503 72.4798 11.871C72.5437 11.7755 72.5751 11.6619 72.5694 11.5471C72.5637 11.4323 72.5212 11.3224 72.4481 11.2337C72.3751 11.1449 72.2754 11.0821 72.1639 11.0544C72.0523 11.0267 71.9349 11.0357 71.8288 11.08ZM70.0839 12.835C70.0113 12.8872 69.953 12.9567 69.9142 13.0372C69.8754 13.1178 69.8575 13.2067 69.8619 13.296C69.8679 13.428 69.8708 13.562 69.8708 13.694C69.8708 18.022 66.5778 22.499 61.0668 22.499C60.0839 22.4995 59.1079 22.3345 58.1798 22.011C59.2914 21.798 60.3356 21.3213 61.2248 20.621C61.3114 20.5528 61.3747 20.4594 61.4062 20.3538C61.4377 20.2482 61.4359 20.1354 61.4008 20.0309C61.3658 19.9264 61.2994 19.8353 61.2106 19.7699C61.1218 19.7046 61.015 19.6683 60.9048 19.666C60.4736 19.6578 60.0504 19.5483 59.6693 19.3465C59.2882 19.1446 58.9599 18.8561 58.7108 18.504C58.9638 18.487 59.2118 18.445 59.4528 18.38C59.5694 18.3488 59.6721 18.279 59.7439 18.1819C59.8158 18.0849 59.8526 17.9664 59.8484 17.8457C59.8442 17.725 59.7993 17.6093 59.7209 17.5175C59.6425 17.4256 59.5353 17.3631 59.4168 17.34C58.9298 17.2409 58.4789 17.0114 58.1124 16.6758C57.7458 16.3402 57.4774 15.9114 57.3358 15.435C57.6018 15.502 57.8748 15.541 58.1478 15.55C58.3828 15.549 58.6008 15.405 58.6738 15.179C58.7468 14.953 58.6608 14.704 58.4618 14.572C57.9913 14.2585 57.629 13.8074 57.4244 13.2803C57.2198 12.7532 57.183 12.1758 57.3188 11.627C59.0558 13.4093 61.4014 14.4707 63.8868 14.599C64.0628 14.6 64.2168 14.537 64.3238 14.408C64.4308 14.279 64.4719 14.108 64.4339 13.944C64.2971 13.355 64.3582 12.7373 64.6079 12.1866C64.8575 11.6359 65.2817 11.1828 65.8148 10.8974C66.3479 10.6121 66.9603 10.5104 67.557 10.6081C68.1538 10.7059 68.7016 10.9975 69.1158 11.438C69.1779 11.5042 69.2559 11.5536 69.3423 11.5814C69.4288 11.6092 69.5207 11.6146 69.6098 11.597C69.7748 11.564 69.9379 11.526 70.0989 11.482C70.0263 11.5363 69.9508 11.5867 69.8728 11.633C69.7691 11.6965 69.6901 11.7935 69.6489 11.9079C69.6077 12.0223 69.6067 12.1473 69.6461 12.2624C69.6854 12.3774 69.7629 12.4757 69.8656 12.5409C69.9682 12.606 70.09 12.6343 70.2109 12.621L70.3928 12.598C70.2926 12.6806 70.1896 12.7596 70.0839 12.835Z" fill="white"/>
<path d="M109.035 9.42291C104.38 9.42291 100.623 12.8221 100.623 17.034C100.623 21.2459 104.38 24.6451 109.035 24.6451C113.69 24.6451 117.447 21.2459 117.447 17.034C117.447 12.8221 113.69 9.42291 109.035 9.42291ZM109.035 21.9807C106.024 21.9807 103.568 19.7578 103.568 17.034C103.568 14.3102 106.024 12.0873 109.035 12.0873C112.046 12.0873 114.502 14.3102 114.502 17.034C114.502 19.7578 112.046 21.9807 109.035 21.9807ZM117.792 7.33733C116.705 7.33733 115.827 8.13151 115.827 9.11491C115.827 10.0983 116.705 10.8924 117.792 10.8924C118.879 10.8924 119.756 10.102 119.756 9.11491C119.757 8.88131 119.706 8.65011 119.608 8.43431C119.509 8.21851 119.364 8.02242 119.182 7.8573C118.999 7.69218 118.783 7.56126 118.544 7.47204C118.306 7.38281 118.05 7.33703 117.792 7.33733ZM125.433 17.034C125.433 14.9856 125.454 12.9557 125.326 10.911C125.199 8.53601 124.6 6.42815 122.681 4.69143C120.757 2.951 118.432 2.41291 115.807 2.29787C113.543 2.18283 111.299 2.20139 109.039 2.20139C106.775 2.20139 104.531 2.18283 102.272 2.29787C99.6466 2.41291 97.3169 2.95471 95.3974 4.69143C93.4738 6.43186 92.8791 8.53601 92.7519 10.911C92.6248 12.9594 92.6453 14.9893 92.6453 17.034C92.6453 19.0787 92.6248 21.1123 92.7519 23.157C92.8791 25.532 93.4779 27.6399 95.3974 29.3766C97.321 31.117 99.6466 31.6551 102.272 31.7701C104.536 31.8852 106.779 31.8666 109.039 31.8666C111.303 31.8666 113.547 31.8852 115.807 31.7701C118.432 31.6551 120.761 31.1133 122.681 29.3766C124.605 27.6361 125.199 25.532 125.326 23.157C125.458 21.1123 125.433 19.0824 125.433 17.034ZM121.824 25.7844C121.524 26.4598 121.163 26.9645 120.585 27.484C120.007 28.0072 119.453 28.3338 118.706 28.6047C116.549 29.3803 111.426 29.2059 109.035 29.2059C106.644 29.2059 101.517 29.3803 99.3595 28.6084C98.613 28.3375 98.0552 28.011 97.481 27.4877C96.9027 26.9645 96.5418 26.4635 96.2423 25.7881C95.3892 23.8324 95.582 19.1975 95.582 17.034C95.582 14.8705 95.3892 10.2318 96.2423 8.27991C96.5418 7.60451 96.9027 7.09983 97.481 6.5803C98.0593 6.06076 98.613 5.73049 99.3595 5.45959C101.517 4.68772 106.644 4.86213 109.035 4.86213C111.426 4.86213 116.553 4.68772 118.711 5.45959C119.457 5.73049 120.015 6.05705 120.589 6.5803C121.167 7.10354 121.528 7.60451 121.828 8.27991C122.681 10.2318 122.488 14.8705 122.488 17.034C122.488 19.1975 122.681 23.8324 121.824 25.7844Z" fill="white"/>
</svg>
